<svg width="42" height="42" viewBox="0 0 42 42" fill="none" xmlns="http://www.w3.org/2000/svg">
<g clip-path="url(#clip0_13897_353)">
<path d="M39.5 21C39.5 10.7827 31.2173 2.5 21 2.5C10.7827 2.5 2.5 10.7827 2.5 21C2.5 31.2173 10.7827 39.5 21 39.5C31.2173 39.5 39.5 31.2173 39.5 21Z" fill="#072723"/>
<path d="M39.5 21C39.5 10.7827 31.2173 2.5 21 2.5C10.7827 2.5 2.5 10.7827 2.5 21C2.5 31.2173 10.7827 39.5 21 39.5C31.2173 39.5 39.5 31.2173 39.5 21Z" stroke="#0F3933" stroke-width="5"/>
<path d="M36.0879 20.8438C36.0879 30.8207 29.9824 34.0221 26.7654 31.1715C24.1175 28.8472 23.3297 23.9356 19.3468 23.4313C14.2917 22.7954 13.854 29.5271 10.5276 29.5271C6.65421 29.5271 5.91016 23.8917 5.91016 20.9973C5.91016 18.0371 6.74174 14.0025 10.0462 14.0025C13.8978 14.0025 14.1166 19.7694 18.931 19.4624C23.7236 19.1335 23.8111 13.1254 26.9187 10.5599C29.6322 8.34526 36.0879 10.7353 36.0879 20.8438Z" fill="#97FCE4"/>
</g>
<defs>
<clipPath id="clip0_13897_353">
<rect width="42" height="42" fill="white"/>
</clipPath>
</defs>
</svg>
