<svg width="20" height="17" viewBox="0 0 20 17" fill="none" xmlns="http://www.w3.org/2000/svg">
<g clip-path="url(#clip0_13897_365)">
<path d="M15.0921 5.193C14.7231 4.978 14.2441 4.978 13.8381 5.193L10.9591 6.847L9.00406 7.925L6.12506 9.578C5.75606 9.794 5.27706 9.794 4.87106 9.578L2.58306 8.284C2.21406 8.069 1.95606 7.674 1.95606 7.242V4.69C1.95606 4.259 2.17706 3.864 2.58306 3.648L4.83306 2.39C5.20306 2.174 5.68306 2.174 6.08906 2.39L8.33906 3.648C8.70906 3.864 8.96706 4.259 8.96706 4.69V6.344L10.9221 5.229V3.576C10.9242 3.3613 10.8668 3.15022 10.7561 2.96625C10.6454 2.78228 10.4858 2.63264 10.2951 2.534L6.12506 0.162C5.75606 -0.054 5.27706 -0.054 4.87106 0.162L0.627059 2.534C0.436353 2.63264 0.276766 2.78228 0.166067 2.96625C0.0553671 3.15022 -0.00210184 3.3613 5.87527e-05 3.576V8.356C5.87527e-05 8.788 0.221059 9.183 0.627059 9.399L4.87106 11.771C5.24006 11.986 5.72006 11.986 6.12506 11.771L9.00406 10.153L10.9591 9.039L13.8381 7.422C14.2071 7.206 14.6861 7.206 15.0921 7.422L17.3431 8.68C17.7131 8.895 17.9701 9.29 17.9701 9.722V12.274C17.9701 12.705 17.7501 13.1 17.3431 13.316L15.0931 14.61C14.7231 14.826 14.2431 14.826 13.8381 14.61L11.5871 13.352C11.2171 13.136 10.9591 12.741 10.9591 12.31V10.656L9.00406 11.771V13.424C9.00406 13.855 9.22506 14.251 9.63106 14.466L13.8751 16.838C14.2441 17.054 14.7231 17.054 15.1291 16.838L19.3731 14.466C19.7421 14.251 20.0001 13.856 20.0001 13.424V8.644C20.0022 8.4293 19.9448 8.21822 19.8341 8.03425C19.7234 7.85028 19.5638 7.70064 19.3731 7.602L15.0921 5.193Z" fill="#6F41D8"/>
</g>
<defs>
<clipPath id="clip0_13897_365">
<rect width="20" height="17" fill="white"/>
</clipPath>
</defs>
</svg>
